<svg width="82" height="82" viewBox="0 0 82 82" fill="none" xmlns="http://www.w3.org/2000/svg">
  <circle cx="41" cy="41" r="41" fill="#83D4B3"/>
  <path fill-rule="evenodd" clip-rule="evenodd" d="M37.2 23.5C25.5 23.5 16 31.2 16 40.7c0 5.4 3.1 10.3 8 13.4l-1.8 6.1 7.1-3.5c2.5.8 5.1 1.2 7.9 1.2 11.7 0 21.2-7.7 21.2-17.2S48.9 23.5 37.2 23.5Zm-8.1 13.4a2.8 2.8 0 1 1 0-5.6 2.8 2.8 0 0 1 0 5.6Zm16.2 0a2.8 2.8 0 1 1 0-5.6 2.8 2.8 0 0 1 0 5.6Z" fill="white"/>
  <path d="M66 49.2c0-7-6.7-12.7-15-12.7-8.2 0-14.9 5.7-14.9 12.7S42.8 62 51 62c2 0 3.9-.3 5.7-.9l5.1 2.6-1.3-4.6c3.4-2.4 5.5-5.9 5.5-9.9Zm-20.7-3.3a2.2 2.2 0 1 1 0-4.4 2.2 2.2 0 0 1 0 4.4Zm11.5 0a2.2 2.2 0 1 1 0-4.4 2.2 2.2 0 0 1 0 4.4Z" fill="white"/>
</svg>
