<svg preserveAspectRatio="none" width="100%" height="100%" overflow="visible" style="display: block;" viewBox="0 0 82 82" fill="none" xmlns="http://www.w3.org/2000/svg">
<g id="&#231;&#187;&#132; 65">
<circle id="&#230;&#164;&#173;&#229;&#156;&#134; 8" cx="41" cy="41" r="41" fill="var(--fill-0, #83D4B3)"/>
<path id="&#232;&#183;&#175;&#229;&#190;&#132; 30" d="M60.0911 27.265C52.8725 16.8061 38.404 14.1129 27.9141 21.2864C17.6891 28.2787 14.8465 41.9484 21.1082 52.365C21.6789 53.3142 21.7379 54.4863 21.2968 55.5022L18.5712 61.7794C18.2354 62.5526 18.8959 63.3883 19.7257 63.2403L29.7269 61.4579C30.413 61.3356 31.1168 61.4299 31.7561 61.7078C39.1523 64.9233 47.7226 64.0707 54.3572 59.3971C64.7671 52.0638 67.308 37.7216 60.0911 27.265ZM48.7114 50.7006H46.1343C37.6083 50.7006 30.672 43.7643 30.672 35.2383V32.6612C30.672 30.5298 32.406 28.7955 34.5375 28.7955C36.6691 28.7955 38.4032 30.5298 38.4032 32.6612V35.2383C38.4032 36.6959 37.5922 37.9676 36.3979 38.6261C37.4319 41.5896 39.783 43.9407 42.7465 44.9748C43.405 43.7804 44.6767 42.9694 46.1343 42.9694H48.7114C50.8428 42.9694 52.5769 44.7035 52.5769 46.8351C52.5769 48.9666 50.8428 50.7006 48.7114 50.7006Z" fill="var(--fill-0, white)"/>
</g>
</svg>
