<svg preserveAspectRatio="none" width="100%" height="100%" overflow="visible" style="display: block;" viewBox="0 0 44 40" fill="none" xmlns="http://www.w3.org/2000/svg">
<g id="mail-send-envelope--envelope-email-message-unopened-sealed-close">
<path id="Subtract" fill-rule="evenodd" clip-rule="evenodd" d="M7.30843 38.9661C4.0383 38.6139 1.43589 36.0444 1.01883 32.7559C0.509416 28.6306 0 24.3684 0 20C0 16.7853 0.278481 13.6255 0.624884 10.5409C0.659651 10.2333 0.857083 9.96895 1.14066 9.8502C1.42424 9.73144 1.7494 9.77699 1.99012 9.96919L16.4813 21.4892C19.7181 24.0612 24.2819 24.0612 27.5187 21.4892L42.0133 9.96919C42.254 9.77885 42.5779 9.7344 42.8603 9.85296C43.1427 9.97153 43.3396 10.2346 43.3751 10.5409C43.7215 13.6255 44 16.7853 44 20C44 24.3684 43.4906 28.634 42.9812 32.7559C42.5641 36.0444 39.9617 38.6139 36.6916 38.9661L36.2365 39.014C31.6382 39.4967 26.8768 40 22 40C17.1232 40 12.3618 39.4967 7.76351 39.014L7.30843 38.9661ZM41.6295 3.87196C41.8762 4.22097 41.8008 4.70479 41.4597 4.96063L24.8901 18.1274C23.1957 19.4764 20.8043 19.4764 19.1099 18.1274L2.54029 4.96063C2.19922 4.70479 2.12376 4.22096 2.37049 3.87196C3.55178 2.27256 5.34158 1.24264 7.30843 1.03047L7.76351 0.985964C12.3618 0.499829 17.1232 0 22 0C26.8768 0 31.6382 0.499829 36.2365 0.985964L36.6916 1.03389C38.6579 1.24522 40.4476 2.27385 41.6295 3.87196Z" fill="var(--fill-0, white)"/>
</g>
</svg>
