<svg preserveAspectRatio="none" width="100%" height="100%" overflow="visible" style="display: block;" viewBox="0 0 90 90" fill="none" xmlns="http://www.w3.org/2000/svg">
<g id="bell--service-concierge-porter-call-ring-bellhop-bell-reception-hotel">
<path id="Union" fill-rule="evenodd" clip-rule="evenodd" d="M40.1084 17.4154V9.83127H35.7447C33.0428 9.83127 30.8524 7.63044 30.8524 4.91564C30.8524 2.2008 33.0428 0 35.7447 0H54.2554C56.9574 0 59.1478 2.2008 59.1478 4.91564C59.1478 7.63044 56.9574 9.83127 54.2554 9.83127H49.8932V17.4156C59.5942 18.5222 68.6945 22.8957 75.6658 29.9001C83.7989 38.0719 88.3677 49.1551 88.3677 60.7117C88.3677 62.2364 87.3214 63.5597 85.8432 63.9041L72.2633 67.0687C54.3257 71.2483 35.6742 71.2483 17.7367 67.0687L4.15663 63.9042C2.6784 63.5597 1.63188 62.2364 1.63188 60.7117C1.63188 49.1551 6.20098 38.0719 14.3341 29.9001C21.3058 22.8953 30.4067 18.5217 40.1084 17.4154ZM5.99876 74.0817C3.3666 73.4682 0.737997 75.1146 0.127572 77.7592C-0.482848 80.4038 1.15607 83.0452 3.78821 83.6587L17.3683 86.823C35.5482 91.059 54.4517 91.059 72.6319 86.823L86.2118 83.6587C88.8439 83.0452 90.4825 80.4039 89.8726 77.7592C89.262 75.1146 86.6332 73.4682 84.0011 74.0817L70.4212 77.2461C53.6956 81.1432 36.3043 81.1432 19.5788 77.2461L5.99876 74.0817Z" fill="var(--fill-0, #83D4B3)"/>
</g>
</svg>
