<svg preserveAspectRatio="none" width="100%" height="100%" overflow="visible" style="display: block;" viewBox="0 0 90 81.235" fill="none" xmlns="http://www.w3.org/2000/svg">
<g id="heart-rate--health-beauty-information-data-beat-pulse-monitor-heart-rate-info">
<path id="Subtract" fill-rule="evenodd" clip-rule="evenodd" d="M0 25.8429C0.295442 5.84904 22.3025 -12.7432 43.6224 11.5105C43.974 11.8983 44.4731 12.1194 44.9966 12.1194C45.52 12.1194 46.0191 11.8983 46.3707 11.5105C67.6975 -12.7432 89.7046 5.84217 90 25.8429C90 56.2666 53.5988 81.235 44.9966 81.235C38.5449 81.235 16.4623 67.1911 5.81952 47.3347C5.54287 46.8168 5.56247 46.1908 5.87098 45.6913C6.1795 45.1917 6.73039 44.8938 7.31735 44.9093L17.8571 44.9093C19.1419 44.9099 20.3595 44.3351 21.1757 43.3427L27.6891 35.407C28.04 34.9801 28.5748 34.7481 29.1262 34.7835C29.6777 34.8189 30.1784 35.1174 30.4718 35.5857L41.7948 53.6901C42.528 54.8621 43.7807 55.6095 45.1603 55.698C46.54 55.7865 47.8779 55.2054 48.7549 54.1367L58.7724 41.9342C59.1004 41.5363 59.5897 41.3068 60.1054 41.309H69.0786C71.4502 41.309 73.3728 39.3864 73.3728 37.0148C73.3728 34.6432 71.4502 32.7206 69.0786 32.7206L57.2609 32.7206C55.976 32.72 54.7584 33.2947 53.9423 34.2871L47.4288 42.2228C47.078 42.6497 46.5432 42.8818 45.9917 42.8464C45.4403 42.811 44.9395 42.5124 44.6462 42.0442L33.3163 23.9397C32.5831 22.7677 31.3304 22.0204 29.9508 21.9318C28.5711 21.8433 27.2332 22.4244 26.3562 23.4931L16.3455 35.6956C16.0176 36.0935 15.5282 36.323 15.0126 36.3208H2.72769C1.94562 36.3296 1.26137 35.7965 1.07871 35.036C0.36936 32.023 0.009709 28.9383 0.0068717 25.8429L0 25.8429Z" fill="var(--fill-0, #83D4B3)"/>
</g>
</svg>
