<svg preserveAspectRatio="none" width="100%" height="100%" overflow="visible" style="display: block;" viewBox="0 0 90 90" fill="none" xmlns="http://www.w3.org/2000/svg">
<g id="hospital-sign--health-sign-medical-symbol-hospital-square">
<path id="Subtract" fill-rule="evenodd" clip-rule="evenodd" d="M9.96163 4.98081C9.96163 2.22999 7.73164 0 4.98081 0C2.22999 0 0 2.22999 0 4.98082V85.0192C0 87.77 2.22999 90 4.98081 90C7.73164 90 9.96163 87.77 9.96163 85.0192V59.9424H23.111C25.3388 64.5989 29.7987 67.7878 34.9255 68.3899C41.5002 69.147 48.2741 69.8509 55.1874 69.8509C62.1141 69.8509 68.888 69.147 75.456 68.3899C82.3718 67.5791 87.8218 62.1182 88.6187 55.2007C89.3359 48.6659 90 41.9185 90 35.0384C90 28.1516 89.3359 21.4175 88.6187 14.876C87.8218 7.95859 82.3718 2.49762 75.456 1.68684C68.8814 0.929752 62.1074 0.225797 55.1874 0.225797C48.2674 0.225797 41.4935 0.929752 34.9255 1.68684C29.7189 2.28453 25.2959 5.58515 23.1176 10.1343H9.96163V4.98081ZM21.2183 49.9808C20.6969 45.0166 20.4177 40.0299 20.3815 35.0384C20.3815 29.9712 20.7401 24.9838 21.2183 20.0959H9.96163V49.9808H21.2183ZM38.1862 35.0384C38.1862 32.7472 40.0458 30.8877 42.3369 30.8877H51.0368V22.1879C51.0368 19.8955 52.8951 18.0372 55.1874 18.0372C57.4798 18.0372 59.3381 19.8955 59.3381 22.1879V30.8877H68.0313C70.3236 30.8877 72.182 32.746 72.182 35.0384C72.182 37.3307 70.3236 39.1891 68.0313 39.1891H59.3315V47.8889C59.3315 50.1812 57.4731 52.0395 55.1808 52.0395C52.8884 52.0395 51.0301 50.1812 51.0301 47.8889V39.1891H42.3436C40.0512 39.1891 38.1929 37.3307 38.1929 35.0384H38.1862Z" fill="var(--fill-0, #83D4B3)"/>
</g>
</svg>
