<svg preserveAspectRatio="none" width="100%" height="100%" overflow="visible" style="display: block;" viewBox="0 0 37.4831 37.4831" fill="none" xmlns="http://www.w3.org/2000/svg">
<g id="instagram alt">
<path id="&#232;&#183;&#175;&#229;&#190;&#132; 2" d="M32.7118 12.9707C32.6961 11.7916 32.4775 10.6202 32.0636 9.51135C31.3296 7.62158 29.838 6.13006 27.9483 5.39601C26.855 4.98995 25.6993 4.76348 24.5357 4.74006C23.0286 4.67759 22.5523 4.65416 18.7415 4.65416C14.9307 4.65416 14.4387 4.65416 12.9472 4.74006C11.7837 4.76348 10.6279 4.98995 9.53468 5.39601C7.64491 6.13006 6.15339 7.62158 5.41934 9.51135C5.01328 10.6046 4.78682 11.7525 4.7712 12.9239C4.70092 14.4232 4.67749 14.8996 4.67749 18.7181C4.67749 22.5289 4.67749 23.0209 4.7712 24.5124C4.79463 25.676 5.01328 26.8317 5.41934 27.9249C6.15339 29.8147 7.64491 31.3062 9.53468 32.0403C10.6279 32.462 11.7759 32.704 12.9472 32.7431C14.4543 32.8056 14.9307 32.829 18.7415 32.829C22.5601 32.829 23.0442 32.829 24.5357 32.7431C25.7071 32.7197 26.855 32.4932 27.9483 32.0871C29.838 31.3531 31.3296 29.8616 32.0636 27.9718C32.4775 26.8785 32.6961 25.7306 32.7196 24.5593C32.782 23.0521 32.8055 22.5758 32.8055 18.765C32.8055 14.9464 32.8055 14.4622 32.7118 12.9707ZM18.7337 25.9258C14.7433 25.9258 11.5104 22.7007 11.5104 18.7103C11.5104 14.7199 14.7433 11.487 18.7337 11.487C22.7163 11.487 25.9492 14.7199 25.9492 18.7103C25.9492 22.6929 22.7163 25.9258 18.7337 25.9258ZM26.2381 12.9083C25.793 12.9083 25.3635 12.7287 25.0511 12.4163C24.731 12.0961 24.5592 11.6666 24.5592 11.2215C24.5592 10.2922 25.3088 9.53478 26.2381 9.53478C27.1674 9.53478 27.9248 10.2922 27.9248 11.2215C27.9248 12.1508 27.1674 12.9083 26.2381 12.9083Z" fill="var(--fill-0, white)"/>
<path id="&#232;&#183;&#175;&#229;&#190;&#132; 3" d="M23.4191 18.7103C23.4191 21.3029 21.3263 23.3957 18.7337 23.3957C16.1411 23.3957 14.0405 21.3029 14.0405 18.7103C14.0405 16.1178 16.1411 14.0171 18.7337 14.0171C21.3263 14.0171 23.4191 16.1178 23.4191 18.7103Z" fill="var(--fill-0, white)"/>
<g id="&#232;&#183;&#175;&#229;&#190;&#132; 4">
</g>
</g>
</svg>
