<svg preserveAspectRatio="none" width="100%" height="100%" overflow="visible" style="display: block;" viewBox="0 0 37.4831 37.4831" fill="none" xmlns="http://www.w3.org/2000/svg">
<g id="youtube">
<path id="&#232;&#183;&#175;&#229;&#190;&#132; 9" d="M33.727 11.2528C33.3599 9.9096 32.3135 8.85539 30.9704 8.48837C28.5262 7.8168 18.7415 7.80899 18.7415 7.80899C18.7415 7.80899 8.95684 7.80118 6.51263 8.44152C5.16948 8.82416 4.12308 9.87056 3.75606 11.2137C3.10791 13.6657 3.1001 18.7338 3.1001 18.7338C3.1001 18.7338 3.09229 23.833 3.73263 26.2538C4.09184 27.5892 5.14606 28.6512 6.4892 29.0104C8.95684 29.682 18.7181 29.6898 18.7181 29.6898C18.7181 29.6898 28.5027 29.7054 30.947 29.0651C32.2901 28.698 33.3443 27.6516 33.7113 26.3085C34.3517 23.8643 34.3595 18.7962 34.3595 18.7962C34.3595 18.7962 34.3907 13.697 33.727 11.2528ZM15.6101 23.4348L15.6179 14.064L23.7549 18.7572L15.6101 23.4348Z" fill="var(--fill-0, white)"/>
<g id="&#232;&#183;&#175;&#229;&#190;&#132; 10">
</g>
</g>
</svg>
