<svg preserveAspectRatio="none" width="100%" height="100%" overflow="visible" style="display: block;" viewBox="0 0 37.4831 37.4831" fill="none" xmlns="http://www.w3.org/2000/svg">
<g id="linkedin">
<path id="&#232;&#183;&#175;&#229;&#190;&#132; 13" d="M11.1981 7.8246C11.1981 9.70657 9.66754 11.2371 7.78557 11.2371C5.8958 11.2371 4.36523 9.70657 4.36523 7.8246C4.36523 5.93483 5.8958 4.40427 7.78557 4.40427C9.66754 4.40427 11.1981 5.93483 11.1981 7.8246Z" fill="var(--fill-0, white)"/>
<path id="&#232;&#183;&#175;&#229;&#190;&#132; 14" d="M14.4232 13.8297V32.7899H20.3112V23.4113C20.3112 20.9359 20.7797 18.5463 23.8486 18.5463C26.8707 18.5463 26.9097 21.3732 26.9097 23.5675V32.7899H32.7977V22.3962C32.7977 17.2891 31.6967 13.3612 25.7306 13.3612C22.8647 13.3612 20.9437 14.9308 20.155 16.4223H20.0769V13.8297H14.4232ZM4.83374 13.8297H10.7295V32.7899H4.83374V13.8297Z" fill="var(--fill-0, white)"/>
<g id="&#232;&#183;&#175;&#229;&#190;&#132; 15">
</g>
</g>
</svg>
