<svg preserveAspectRatio="none" width="100%" height="100%" overflow="visible" style="display: block;" viewBox="0 0 70 70.0898" fill="none" xmlns="http://www.w3.org/2000/svg">
<g id="pencil-square--change-document-edit-modify-paper-pencil-write-writing">
<path id="Union" fill-rule="evenodd" clip-rule="evenodd" d="M67.1213 2.87858C63.1802 -1.06289 56.753 -0.940952 52.9637 3.1472L36.2134 21.2195C35.4792 22.0117 34.9227 22.9516 34.5812 23.9763L32.057 31.5486C30.7397 35.5006 34.4995 39.2603 38.4514 37.943L46.0238 35.4189C47.0484 35.0773 47.9884 34.5208 48.7805 33.7866L66.8529 17.0362C70.941 13.247 71.0629 6.82009 67.1213 2.87858ZM31.5788 16.924C30.2327 18.3764 29.2124 20.0994 28.5862 21.978L26.0621 29.5504C23.0981 38.4423 31.5576 46.9017 40.4495 43.9378L48.0219 41.4136C49.9004 40.7875 51.6235 39.7672 53.0759 38.4211L62.4488 29.7339C63.2212 29.018 64.4754 29.5056 64.5457 30.5562C64.7024 32.9035 64.8009 35.2967 64.8009 37.7202C64.8009 38.9633 64.7752 40.1985 64.7287 41.4237C64.7251 41.5143 64.7322 41.605 64.7453 41.6947C64.7944 42.0222 64.8121 42.3594 64.7949 42.7028C64.581 46.9648 64.1377 51.1185 63.6989 55.0453C63.202 59.4954 60.8245 63.3627 57.4259 65.864C55.2734 67.4817 52.6795 68.5645 49.8575 68.8911C45.6614 69.3764 41.1893 69.8773 36.5964 70.0846C36.3022 70.0978 36.0128 70.0856 35.7303 70.0497C35.6539 70.0401 35.5769 70.0356 35.4999 70.0381C34.494 70.0715 33.4816 70.0897 32.4639 70.0897C26.3405 70.0897 20.4075 69.4289 14.9437 68.7965C7.76515 67.9665 2.03355 62.249 1.22881 55.0448C0.620084 49.5954 0.00024082 43.7055 0.00024082 37.626C0.00024082 36.3828 0.0261579 35.1475 0.0725977 33.9224C0.0760332 33.8318 0.0692415 33.7411 0.0557957 33.6514C0.00670292 33.3239 -0.0107659 32.9867 0.00646533 32.6432C0.220282 28.3812 0.66368 24.2275 1.1023 20.3009C1.59944 15.8503 3.97697 11.9831 7.37562 9.4818C9.52808 7.86413 12.1217 6.78166 14.9437 6.45525C19.1398 5.96984 23.6119 5.46847 28.2049 5.26161C28.499 5.24836 28.7885 5.2605 29.0709 5.29613C29.1474 5.30579 29.2244 5.31059 29.3014 5.30806C30.3073 5.2747 31.3197 5.25645 32.3374 5.25645C34.7228 5.25645 37.0794 5.35675 39.3907 5.51659C40.4394 5.58908 40.924 6.84131 40.2094 7.61233L31.5788 16.924Z" fill="var(--fill-0, #83D4B3)"/>
</g>
</svg>
