<svg preserveAspectRatio="none" width="100%" height="100%" overflow="visible" style="display: block;" viewBox="0 0 70 69.9534" fill="none" xmlns="http://www.w3.org/2000/svg">
<g id="chat-bubble-typing-oval--messages-message-bubble-typing-chat">
<path id="Subtract" fill-rule="evenodd" clip-rule="evenodd" d="M11.1288 8.89542C17.0663 2.95793 25.6284 0 36.1168 0C46.6051 0 55.1674 2.95793 61.1048 8.89543C67.0422 14.8329 70 23.395 70 33.8834C70 44.3718 67.0422 52.9339 61.1048 58.8713C55.1674 64.8087 46.6051 67.767 36.1168 67.767C30.3476 67.767 25.1644 66.8745 20.6705 65.0766L6.87156 69.6764C2.7346 71.0552 -1.16611 67.0476 0.324138 62.9493L5.11055 49.7869C3.18742 45.1885 2.23337 39.849 2.23337 33.8834C2.23337 23.395 5.19132 14.8329 11.1288 8.89542ZM36.4393 38.7638C38.9517 38.7638 40.9883 36.7272 40.9883 34.2149C40.9883 31.7026 38.9517 29.6659 36.4393 29.6659C33.927 29.6659 31.8904 31.7026 31.8904 34.2149C31.8904 36.7272 33.927 38.7638 36.4393 38.7638ZM24.4271 34.2149C24.4271 36.7272 22.3905 38.7638 19.8782 38.7638C17.3659 38.7638 15.3292 36.7272 15.3292 34.2149C15.3292 31.7026 17.3659 29.6659 19.8782 29.6659C22.3905 29.6659 24.4271 31.7026 24.4271 34.2149ZM52.9978 38.7638C55.5104 38.7638 57.5471 36.7272 57.5471 34.2149C57.5471 31.7026 55.5104 29.6659 52.9978 29.6659C50.4858 29.6659 48.449 31.7026 48.449 34.2149C48.449 36.7272 50.4858 38.7638 52.9978 38.7638Z" fill="var(--fill-0, #83D4B3)"/>
</g>
</svg>
