<svg preserveAspectRatio="none" width="100%" height="100%" overflow="visible" style="display: block;" viewBox="0 0 70 70.0007" fill="none" xmlns="http://www.w3.org/2000/svg">
<path id="&#232;&#183;&#175;&#229;&#190;&#132; 23" fill-rule="evenodd" clip-rule="evenodd" d="M65.3767 13.1685C62.827 8.06985 59.8844 5.12589 58.4904 3.73188C56.9718 2.21325 54.51 2.21325 52.9913 3.73188C52.2749 4.44761 49.9977 5.93287 47.181 6.17122C44.6872 6.38301 41.398 5.66183 38.0366 1.45938C37.2984 0.537309 36.1815 0 35 0C33.8185 0 32.7009 0.537309 31.9634 1.45938C28.6013 5.66183 25.3128 6.38301 22.8189 6.17122C20.0017 5.93287 17.7251 4.44761 17.0087 3.73188C15.49 2.21325 13.0275 2.21325 11.5089 3.73188C10.1156 5.12589 7.17229 8.06985 4.62331 13.1685C2.07501 18.2651 0 25.3448 0 35C0 46.8984 6.03298 55.0806 13.2223 60.4728C20.302 65.7826 28.6531 68.5338 34.0568 69.8842C34.6758 70.0395 35.3235 70.0395 35.9432 69.8842C41.3462 68.5338 49.698 65.7826 56.7777 60.4728C63.967 55.0806 70 46.8984 70 35C70 25.3448 67.925 18.2651 65.3767 13.1685ZM52.6917 55.0248C46.9291 59.3471 40.0176 61.7837 35 63.0967V8.19992C39.1521 12.1123 43.3886 13.0146 46.4129 13.0146C46.8562 13.0146 47.3077 12.9948 47.7544 12.9581C50.791 12.7007 53.4537 11.6206 55.4211 10.3975C56.5897 11.7418 57.9885 13.62 59.2851 16.2139C61.8763 21.395 63.19 27.7153 63.19 35.0007C63.19 43.063 59.6576 49.8002 52.6917 55.0248Z" fill="var(--fill-0, #83D4B3)"/>
</svg>
